<mxfile host="app.diagrams.net" modified="2024-01-02T20:20:05.888Z" agent="Mozilla/5.0 (Macintosh; Intel Mac OS X 10.15; rv:121.0) Gecko/20100101 Firefox/121.0" etag="AHZq8Scb8BnzdMKMGB8b" version="22.1.16" type="github">
  <diagram name="Page-1" id="4L9wvLSu7pgAp8xqER1T">
    <mxGraphModel dx="3406" dy="1213" grid="1" gridSize="10" guides="1" tooltips="1" connect="1" arrows="1" fold="1" page="1" pageScale="1" pageWidth="1100" pageHeight="850" math="0" shadow="0">
      <root>
        <mxCell id="0" />
        <mxCell id="1" parent="0" />
      </root>
    </mxGraphModel>
  </diagram>
</mxfile>
